
        <svg xmlns="http://www.w3.org/2000/svg" xmlns:xlink="http://www.w3.org/1999/xlink" version="1.1" width="3231.0479319833053" height="1444.0495748956566" viewBox="0 0 3231.0479319833053 1444.0495748956566">
			
			<g transform="scale(11.552396599165254) translate(10, 10)">
				<defs id="SvgjsDefs1035"><linearGradient id="SvgjsLinearGradient1044"><stop id="SvgjsStop1045" stop-color="#b98947" offset="0"/><stop id="SvgjsStop1046" stop-color="#faf0a1" offset="1"/></linearGradient></defs><g id="SvgjsG1036" featureKey="symbolGroupContainer" transform="matrix(1,0,0,1,0,0)" fill="#000"><rect xmlns="http://www.w3.org/2000/svg" width="103" height="105" rx="10" ry="10"/></g><g id="SvgjsG1037" featureKey="monogramFeature-0" transform="matrix(1.5543990713741365,0,0,1.5543990713741365,15.336859857910756,-8.683896891130704)" fill="#ffffff"><path d="M43.449 56.04 c0.68004 1.0538 -3.1099 4.4891 -4.1745 3.9 c-7.0536 -5.3261 -14.686 -9.5568 -22.551 -12.625 c-0.59426 3.7689 -1.2539 7.5216 -2.0071 11.25 c-0.30761 1.4173 -5.4113 1.0837 -5.7017 -0.33879 c-0.55043 -6.4404 -1.357 -12.845 -2.3542 -19.191 c-1.0042 -6.3426 -2.2054 -12.634 -3.6539 -18.763 c-0.39533 -0.96798 17.003 -2.5614 16.782 -1.4269 c-0.15316 2.8893 -0.36797 5.7538 -0.61842 8.6052 c5.2333 -1.936 10.364 -4.5272 15.206 -7.7904 c0.84276 -0.53707 4.571 2.9656 4.0759 4.0015 c-3.1861 4.7732 -6.9558 9.2856 -11.249 13.414 c6.2532 5.7526 11.705 12.145 16.245 18.964 z"/></g><g id="SvgjsG1038" featureKey="nameLeftFeature-0" transform="matrix(1.9148935004562926,0,0,1.9148935004562926,121.4680852909442,32.47234481614631)" fill="#000"><path d="M5.14 1.3200000000000003 l0 5.06 c0 1.84 -0.58 2.58 -1.72 4.2 c1.16 1.62 1.72 2.38 1.72 4.02 l0 5.4 l-0.76 0 l0 -5.58 c0 -1.18 -0.7 -2.18 -1.4 -3.18 c-0.7 1 -1.42 2 -1.42 3.18 l0 5.58 l-0.76 0 l0 -18.68 l0.76 0 l0 10.66 c0.32 -0.52 0.76 -1.1 1.28 -1.86 c1 -1.42 1.56 -2.28 1.54 -3.52 l0 -5.28 l0.76 0 z M10.32 1.3200000000000003 l0.76 0 l0 16.72 c0 1.22 -0.5 2.08 -2.04 2.08 l-0.28 0 c-1.5 0 -2.02 -0.86 -2.02 -2.28 l0 -16.52 l0.76 0 l0 16.4 c0 0.88 0.2 1.64 1.42 1.64 c1.2 0 1.4 -0.76 1.4 -1.64 l0 -16.4 z M13.440000000000001 19.24 l0 -17.92 l-0.76 0 l0 18.68 l2.68 0 l0 -0.76 l-1.92 0 z M21.54 1.3200000000000003 l0 0.76 l-1.92 0 l0 17.92 l-0.76 0 l0 -17.92 l-1.9 0 l0 -0.76 l4.58 0 z M26.72 1.3200000000000003 l0.76 0 l0 16.72 c0 1.22 -0.5 2.08 -2.04 2.08 l-0.28 0 c-1.5 0 -2.02 -0.86 -2.02 -2.28 l0 -16.52 l0.76 0 l0 16.4 c0 0.88 0.2 1.64 1.42 1.64 c1.2 0 1.4 -0.76 1.4 -1.64 l0 -16.4 z M31.700000000000003 10.58 c1.14 1.62 1.72 2.38 1.72 4.02 l0 5.4 l-0.76 0 l0 -5.58 c0 -1.18 -0.72 -2.18 -1.42 -3.18 c-0.7 1 -1.4 2 -1.4 3.18 l0 5.58 l-0.76 0 l0 -18.68 l2.3 0 c1.54 0 2.04 0.86 2.04 2.08 l0 2.98 c0 1.84 -0.6 2.58 -1.72 4.2 z M29.84 11.98 c0.32 -0.52 0.74 -1.1 1.28 -1.86 c0.98 -1.42 1.54 -2.28 1.54 -3.52 l0 -2.88 c0 -0.88 -0.2 -1.64 -1.4 -1.64 l-1.42 0 l0 9.9 z M37.74 11.04 l-1.92 0 l0 8.2 l1.92 0 l0 0.76 l-2.66 0 l0 -18.68 l2.66 0 l0 0.76 l-1.92 0 l0 8.2 l1.92 0 l0 0.76 z"/></g><g id="SvgjsG1039" featureKey="nameRightFeature-0" transform="matrix(1.9007391227505699,0,0,1.9007391227505699,195.8595571607898,32.985219131088925)" fill="#000"><path d="M5.4 6.4399999999999995 q0 1.34 -0.28 2.15 t-1.1 1.99 q0.82 1.18 1.1 1.97 t0.28 2.11 l0 5.34 l-1.68 0 l0 -5.58 q0 -0.74 -0.15 -1.24 t-0.57 -1.14 q-0.44 0.64 -0.59 1.14 t-0.15 1.24 l0 5.58 l-1.66 0 l0 -5.34 q0 -1.32 0.28 -2.12 t1.1 -1.96 q-0.82 -1.18 -1.1 -1.99 t-0.28 -2.15 l0 -5.12 l1.66 0 l0 5.34 q0 0.78 0.15 1.29 t0.59 1.19 q0.42 -0.66 0.57 -1.17 t0.15 -1.31 l0 -5.34 l1.68 0 l0 5.12 z M11.4 3.6400000000000006 l0 2.8 q0 1.04 -0.16 1.72 t-0.51 1.31 t-1.15 1.75 q-0.82 1.12 -1.07 1.7 t-0.25 1.5 l0 5.58 l-1.66 0 l0 -18.68 l2.56 0 q2.24 0 2.24 2.32 z M8.26 2.9800000000000004 l0 7.2 q0.18 -0.24 0.2 -0.26 q0.8 -1.1 1.04 -1.7 t0.24 -1.56 l0 -2.82 q0 -0.4 -0.16 -0.63 t-0.58 -0.23 l-0.74 0 z M14.26 1.3200000000000003 l0 17 l1.46 0 l0 1.68 l-3.12 0 l0 -18.68 l1.66 0 z M21.7 3.3599999999999994 l0 14.34 q0 2.3 -2.24 2.3 l0.88 0 l-1.18 0 q-1.2 0 -1.72 -0.61 t-0.52 -1.69 l0 -14.34 q0 -1.1 0.52 -1.7 t1.72 -0.6 l0.98 0 l-0.68 0 q2.24 0 2.24 2.3 z M20.04 3.5799999999999983 q0 -0.4 -0.16 -0.63 t-0.58 -0.23 t-0.57 0.23 t-0.15 0.63 l0 13.9 q0 0.4 0.15 0.63 t0.57 0.23 t0.58 -0.23 t0.16 -0.63 l0 -13.9 z M27.68 20 l-1.64 0 l-0.02 -5.72 q0 -0.72 -0.14 -1.21 t-0.54 -1.09 q-0.46 0.7 -0.62 1.22 t-0.16 1.34 l0 5.46 l-1.66 0 l0 -18.68 l2.54 0 q2.24 0 2.24 2.32 l0 2.88 q0 1.32 -0.26 2.1 t-1.04 1.9 q0.76 1.08 1.03 1.85 t0.27 2.03 l0 5.6 z M26.02 3.84 q0 -0.4 -0.15 -0.63 t-0.57 -0.23 l-0.74 0 l0 7.2 q0.06 -0.06 0.09 -0.12 t0.07 -0.1 q0.8 -1.1 1.05 -1.69 t0.25 -1.51 l0 -2.92 z M28.8 20 l0.98 -18.68 l2.82 0 l0.98 18.68 l-1.54 0 l-0.2 -3.9 l-0.28 0.4 q-0.52 0.72 -0.76 1.16 t-0.32 0.85 t-0.12 1.11 l-0.02 0.38 l-1.54 0 z M31.44 13.52 q0.18 -0.5 0.18 -1.42 l-0.44 -8.28 l-0.58 11.14 q0.66 -0.94 0.84 -1.44 z"/></g>
			</g>
		</svg>
	